<svg width="33" height="64" viewBox="0 0 33 64" fill="none" xmlns="http://www.w3.org/2000/svg">
<path d="M16.6789 23.4613C15.2342 21.5206 14.4788 19.5731 13.9276 17.6235C13.415 15.7135 13.1452 13.7452 13.1246 11.7661C13.0975 9.78705 13.3243 7.81283 13.7993 5.89289C14.3087 3.93253 15.03 1.9702 16.4436 0C17.8951 1.93969 18.6553 3.88824 19.2046 5.83778C19.7182 7.74731 19.9849 9.71623 19.9979 11.6952C20.0177 13.6747 19.788 15.6487 19.3145 17.5694C18.8021 19.5288 18.0837 21.4921 16.6789 23.4613Z" fill="#8BC34A"/>
<path d="M25.1933 4.92058C25.5015 7.33855 25.2089 9.42193 24.7364 11.4039C24.2479 13.3327 23.5201 15.191 22.5704 16.9347C21.6268 18.6811 20.4645 20.2969 19.1123 21.7421C17.7094 23.2054 16.1208 24.5655 13.9295 25.587C13.6126 23.1641 13.9033 21.0807 14.3787 19.0997C14.8657 17.1707 15.5967 15.3135 16.5535 13.5739C17.5038 11.8311 18.6687 10.2174 20.0203 8.77142C21.4222 7.30706 23.0069 5.94701 25.1933 4.92058Z" fill="#7CB342"/>
<path d="M19.4292 25.586C17.2165 24.5822 15.5988 23.232 14.1599 21.7775C12.7444 20.3092 11.5642 18.7051 10.5833 16.9858C9.58723 15.247 8.81488 13.3863 8.285 11.4492C7.76488 9.46227 7.42947 7.36512 7.69391 4.92058C9.91342 5.91946 11.5341 7.26868 12.971 8.7232C14.357 10.1619 15.556 11.7738 16.5389 13.5198C17.529 15.2623 18.2983 17.1241 18.8284 19.0613C19.3475 21.0512 19.6868 23.1464 19.4292 25.586Z" fill="#7CB342"/>
<path d="M31.0265 10.8253C30.5141 13.2157 29.5458 15.0855 28.4414 16.7998C27.3185 18.4935 26.0168 19.9825 24.5614 21.2982C23.0902 22.6316 21.4559 23.768 19.6985 24.6797C17.8883 25.5929 15.939 26.3438 13.528 26.5721C14.0345 24.1758 14.9999 22.303 16.1072 20.5916C17.2301 18.898 18.5328 17.408 19.9941 16.1001C21.4553 14.7903 23.0691 13.6566 24.8628 12.7246C26.674 11.8143 28.6232 11.0595 31.0265 10.8253Z" fill="#558B2F"/>
<path d="M2.83393 9.84214C5.11663 10.283 6.88505 11.1835 8.49888 12.2208C10.0923 13.2767 11.4835 14.5137 12.7017 15.9063C13.9387 17.3145 14.9804 18.8868 15.7981 20.5798C16.6167 22.3296 17.2758 24.2191 17.4168 26.5721C15.1273 26.1381 13.3569 25.2396 11.744 24.1994C10.1516 23.1425 8.75943 21.9064 7.54905 20.508C6.33673 19.1115 5.29746 17.5596 4.4604 15.8285C3.64279 14.0778 2.98171 12.1902 2.83393 9.84214Z" fill="#558B2F"/>
<path d="M33 39.7622C33 35.0699 30.9526 30.3797 27.5917 26.9067C25.8476 25.1038 20.9147 22.7163 17.8825 22.6543H14.7637C14.7637 22.6543 9.86675 22.4565 5.65426 26.7207C2.18451 30.233 0.000972696 34.9863 0.00291711 39.7632L0.00194638 46.8911C0.00194638 56.3387 7.38864 63.999 16.501 64C25.6133 63.999 33 56.3387 33 46.8911V39.7622Z" fill="#F9A825"/>
<path d="M31.9248 52.9179L31.9286 52.9139C32.4459 51.5041 32.7786 50.0319 32.9183 48.5346C31.9786 49.1707 31.0869 49.8766 30.2506 50.6465C29.0714 49.567 27.0346 47.9048 25.0494 47.2139C26.6506 45.723 28.9557 44.0392 30.2506 44.0412C30.9574 44.0402 31.9685 44.5499 33 45.2496V41.9725C32.6515 41.7954 32.292 41.6412 31.9238 41.511C32.2572 41.203 32.6228 40.8861 33 40.579L33 39.7622C32.999 38.909 32.929 38.0587 32.7968 37.2124C31.9027 37.8278 31.0522 38.5059 30.2516 39.2416C29.0714 38.163 27.0346 36.5009 25.0494 35.81C26.6526 34.3191 28.9547 32.6362 30.2497 32.6362C30.6317 32.6372 31.1042 32.7947 31.6146 33.0377C30.1068 29.4179 27.5595 26.34 24.3028 24.2033C21.1237 22.4516 16.5019 22.6563 16.5019 22.6563C17.5189 22.6563 19.1619 23.7034 20.5978 24.8755C18.9907 25.6913 17.4595 26.9559 16.5 27.8367C15.5404 26.9559 14.0092 25.6894 12.4022 24.8755C13.8391 23.7044 15.4811 22.6563 16.5 22.6563C16.5 22.6563 12.1281 22.0412 8.82262 24.1748C5.53437 26.3083 2.95304 29.3902 1.41162 33.023C1.9123 32.7878 2.37506 32.6382 2.74838 32.6362C4.04334 32.6362 6.3484 34.3201 7.95057 35.81C5.9673 36.5009 3.92862 38.163 2.75032 39.2416C1.94965 38.5073 1.09953 37.8303 0.206105 37.2153C0.0719426 38.0597 -1.30376e-07 38.9119 0.000972119 39.7632L0 40.579C0.378182 40.8871 0.742753 41.203 1.07524 41.512C0.706971 41.6408 0.347737 41.7946 1.39073e-06 41.9725L3.47682e-07 45.2496C1.03247 44.549 2.04257 44.0402 2.75032 44.0402C4.04431 44.0411 6.3484 45.724 7.95057 47.2139C5.96535 47.9048 3.92862 49.567 2.74935 50.6465C1.91312 49.8764 1.02108 49.1708 0.0806925 48.5356C0.22166 50.0659 0.56776 51.5283 1.07135 52.9139L1.07427 52.9169C1.39978 53.818 1.79979 54.6898 2.27006 55.5228C2.43631 55.4825 2.6045 55.4441 2.74838 55.4441C4.04334 55.4441 6.34645 57.1279 7.94862 58.6179C7.17865 58.8875 6.40381 59.3077 5.67078 59.7781C6.43006 60.4641 7.25059 61.0782 8.12362 61.6116C8.68846 61.3291 9.20955 61.148 9.62273 61.147C10.7757 61.147 12.723 62.4786 14.2688 63.8248C14.9989 63.9262 15.7407 63.998 16.4971 63.998C17.2544 63.997 17.9952 63.9242 18.7253 63.8248C20.2711 62.4786 22.2194 61.148 23.3714 61.147C23.7856 61.147 24.3057 61.3291 24.8715 61.6106C25.7445 61.0772 26.5641 60.4641 27.3234 59.7781C26.5904 59.3077 25.8155 58.8875 25.0455 58.6179C26.6467 57.1269 28.9508 55.4441 30.2458 55.4441C30.3897 55.4441 30.5579 55.4825 30.7241 55.5228C31.1908 54.6962 31.5923 53.8252 31.9218 52.9169L31.9248 52.9179ZM28.5804 41.5159C26.5962 42.2058 24.5556 43.864 23.3753 44.9426C22.1951 43.864 20.1545 42.2058 18.1692 41.5169C19.7714 40.023 22.0794 38.3362 23.3753 38.3372C24.6712 38.3362 26.9783 40.022 28.5804 41.5159ZM21.707 47.2179C19.7209 47.9077 17.6812 49.565 16.501 50.6455C15.3207 49.565 13.2811 47.9077 11.2949 47.2179C12.8971 45.726 15.205 44.0392 16.501 44.0402C17.7969 44.0392 20.1029 45.726 21.707 47.2179ZM23.3763 26.9303C24.6703 26.9313 26.9744 28.6141 28.5765 30.1041C26.5913 30.7949 24.5556 32.4581 23.3763 33.5357C22.198 32.4571 20.1603 30.7959 18.1761 30.1041C19.7782 28.6141 22.0813 26.9303 23.3763 26.9303ZM21.7061 35.813C19.7209 36.5018 17.6812 38.1591 16.501 39.2377C15.3207 38.1591 13.2811 36.5038 11.2959 35.813C12.898 34.3191 15.206 32.6343 16.501 32.6343C17.7959 32.6343 20.1029 34.3201 21.7061 35.813ZM4.42152 30.11C6.02271 28.6171 8.33069 26.9323 9.62565 26.9303H9.62954C10.9245 26.9323 13.2315 28.6181 14.8337 30.11C12.8485 30.7989 10.8098 32.4571 9.62759 33.5357C8.44735 32.4571 6.40673 30.8009 4.42152 30.11ZM4.42735 41.512C6.02855 40.0191 8.33361 38.3352 9.62759 38.3362C10.9225 38.3362 13.2257 40.0201 14.8278 41.51C12.8436 42.1999 10.8069 43.864 9.62759 44.9416C8.44833 43.864 6.41062 42.2009 4.42735 41.512ZM4.42735 52.9159C6.02855 51.423 8.33361 49.7411 9.62856 49.7411C10.9225 49.7421 13.2257 51.424 14.8288 52.9169C12.8436 53.6058 10.8059 55.2689 9.62857 56.3465C8.4493 55.2689 6.41062 53.6068 4.42735 52.9159ZM16.5019 62.0505C15.3207 60.9709 13.2821 59.3146 11.2959 58.6248C12.899 57.1319 15.206 55.4461 16.5019 55.4451C17.7979 55.4461 20.1049 57.1319 21.709 58.6257C19.7209 59.3136 17.6822 60.9699 16.5019 62.0505ZM23.3753 56.3465C22.1951 55.2679 20.1564 53.6097 18.1702 52.9218C19.7724 51.4279 22.0804 49.7411 23.3753 49.7411C24.6732 49.7421 26.9783 51.4279 28.5824 52.9218C26.5952 53.6107 24.5575 55.2679 23.3753 56.3465Z" fill="#C68632"/>
</svg>
